<svg width="32" height="32" viewBox="0 0 48 48" fill="none" xmlns="http://www.w3.org/2000/svg">
  <!-- Background Circle -->
  <circle cx="24" cy="24" r="22" fill="url(#gradient1)" stroke="#1e40af" stroke-width="2"/>
  
  <!-- Bus Body -->
  <rect x="8" y="18" width="32" height="16" rx="3" fill="#ffffff" stroke="#1e40af" stroke-width="1.5"/>
  
  <!-- Bus Windows -->
  <rect x="10" y="20" width="6" height="4" rx="1" fill="#3b82f6" opacity="0.3"/>
  <rect x="18" y="20" width="6" height="4" rx="1" fill="#3b82f6" opacity="0.3"/>
  <rect x="26" y="20" width="6" height="4" rx="1" fill="#3b82f6" opacity="0.3"/>
  <rect x="34" y="20" width="4" height="4" rx="1" fill="#3b82f6" opacity="0.3"/>
  
  <!-- Bus Door -->
  <rect x="10" y="26" width="4" height="6" rx="1" fill="#e5e7eb" stroke="#6b7280" stroke-width="0.5"/>
  
  <!-- Bus Wheels -->
  <circle cx="14" cy="36" r="3" fill="#374151"/>
  <circle cx="14" cy="36" r="1.5" fill="#6b7280"/>
  <circle cx="34" cy="36" r="3" fill="#374151"/>
  <circle cx="34" cy="36" r="1.5" fill="#6b7280"/>
  
  <!-- Bus Front Light -->
  <circle cx="41" cy="26" r="1.5" fill="#fbbf24"/>
  
  <!-- Bangladeshi Flag Colors Accent -->
  <rect x="36" y="28" width="2" height="4" fill="#006a4e"/>
  <circle cx="37" cy="30" r="0.8" fill="#f42a41"/>
  
  <!-- Route Lines -->
  <path d="M6 12 Q24 8 42 12" stroke="#3b82f6" stroke-width="1.5" fill="none" stroke-dasharray="2,2"/>
  
  <!-- Gradient Definitions -->
  <defs>
    <linearGradient id="gradient1" x1="0%" y1="0%" x2="100%" y2="100%">
      <stop offset="0%" stop-color="#dbeafe"/>
      <stop offset="50%" stop-color="#bfdbfe"/>
      <stop offset="100%" stop-color="#93c5fd"/>
    </linearGradient>
  </defs>
</svg>